<svg xmlns="http://www.w3.org/2000/svg" width="1760" height="1060" viewBox="0 0 1760 1060">
<rect width="100%" height="100%" fill="white"/>
<style>
.axis{stroke:#1f1f1f;stroke-width:1.5}
.grid{stroke:#e2e2e2;stroke-width:1}
.title{font:22px sans-serif;font-weight:600;fill:#101010}
.label{font:14px sans-serif;font-weight:700;fill:#222}
.small{font:12px sans-serif;fill:#444}
.legend{font:14px sans-serif;font-weight:700;fill:#1f1f1f}
</style>
<text class="title" x="95" y="42">Monthly Hybrid Energy Totals and H2 Storage Fullness</text>
<line class="grid" x1="95" y1="930.00" x2="1645" y2="930.00"/>
<text class="small" x="85" y="934.00" text-anchor="end">0</text>
<line class="grid" x1="95" y1="849.42" x2="1645" y2="849.42"/>
<text class="small" x="85" y="853.42" text-anchor="end">2000</text>
<line class="grid" x1="95" y1="768.84" x2="1645" y2="768.84"/>
<text class="small" x="85" y="772.84" text-anchor="end">4000</text>
<line class="grid" x1="95" y1="688.26" x2="1645" y2="688.26"/>
<text class="small" x="85" y="692.26" text-anchor="end">6000</text>
<line class="grid" x1="95" y1="607.68" x2="1645" y2="607.68"/>
<text class="small" x="85" y="611.68" text-anchor="end">8000</text>
<line class="grid" x1="95" y1="527.10" x2="1645" y2="527.10"/>
<text class="small" x="85" y="531.10" text-anchor="end">10000</text>
<line class="grid" x1="95" y1="446.52" x2="1645" y2="446.52"/>
<text class="small" x="85" y="450.52" text-anchor="end">12000</text>
<line class="grid" x1="95" y1="365.94" x2="1645" y2="365.94"/>
<text class="small" x="85" y="369.94" text-anchor="end">14000</text>
<line class="grid" x1="95" y1="285.36" x2="1645" y2="285.36"/>
<text class="small" x="85" y="289.36" text-anchor="end">16000</text>
<text class="small" x="1655" y="934.00" text-anchor="start">0</text>
<text class="small" x="1655" y="863.00" text-anchor="start">10</text>
<text class="small" x="1655" y="792.00" text-anchor="start">20</text>
<text class="small" x="1655" y="721.00" text-anchor="start">30</text>
<text class="small" x="1655" y="650.00" text-anchor="start">40</text>
<text class="small" x="1655" y="579.00" text-anchor="start">50</text>
<text class="small" x="1655" y="508.00" text-anchor="start">60</text>
<text class="small" x="1655" y="437.00" text-anchor="start">70</text>
<text class="small" x="1655" y="366.00" text-anchor="start">80</text>
<text class="small" x="1655" y="295.00" text-anchor="start">90</text>
<text class="small" x="1655" y="224.00" text-anchor="start">100</text>
<text class="small" x="159.58" y="956" text-anchor="middle">Jan</text>
<text class="small" x="288.75" y="956" text-anchor="middle">Feb</text>
<text class="small" x="417.92" y="956" text-anchor="middle">Mar</text>
<text class="small" x="547.08" y="956" text-anchor="middle">Apr</text>
<text class="small" x="676.25" y="956" text-anchor="middle">May</text>
<text class="small" x="805.42" y="956" text-anchor="middle">Jun</text>
<text class="small" x="934.58" y="956" text-anchor="middle">Jul</text>
<text class="small" x="1063.75" y="956" text-anchor="middle">Aug</text>
<text class="small" x="1192.92" y="956" text-anchor="middle">Sep</text>
<text class="small" x="1322.08" y="956" text-anchor="middle">Oct</text>
<text class="small" x="1451.25" y="956" text-anchor="middle">Nov</text>
<text class="small" x="1580.42" y="956" text-anchor="middle">Dec</text>
<line class="axis" x1="95" y1="930" x2="1645" y2="930"/>
<line class="axis" x1="95" y1="220" x2="95" y2="930"/>
<line class="axis" x1="1645" y1="220" x2="1645" y2="930"/>
<rect x="109.21" y="432.20" width="22.16" height="497.80" fill="#2c6db2"/>
<rect x="135.40" y="899.42" width="22.16" height="30.58" fill="#f0a202"/>
<rect x="161.60" y="899.45" width="22.16" height="30.55" fill="#d48806"/>
<rect x="187.79" y="879.74" width="22.16" height="50.26" fill="#2b9b57"/>
<rect x="238.38" y="410.10" width="22.16" height="519.90" fill="#2c6db2"/>
<rect x="264.57" y="877.59" width="22.16" height="52.41" fill="#f0a202"/>
<rect x="290.76" y="914.60" width="22.16" height="15.40" fill="#d48806"/>
<rect x="316.96" y="885.67" width="22.16" height="44.33" fill="#2b9b57"/>
<rect x="367.54" y="297.34" width="22.16" height="632.66" fill="#2c6db2"/>
<rect x="393.74" y="857.37" width="22.16" height="72.63" fill="#f0a202"/>
<rect x="419.93" y="916.71" width="22.16" height="13.29" fill="#d48806"/>
<rect x="446.13" y="893.71" width="22.16" height="36.29" fill="#2b9b57"/>
<rect x="496.71" y="475.88" width="22.16" height="454.12" fill="#2c6db2"/>
<rect x="522.90" y="829.88" width="22.16" height="100.12" fill="#f0a202"/>
<rect x="549.10" y="916.36" width="22.16" height="13.64" fill="#d48806"/>
<rect x="575.29" y="909.42" width="22.16" height="20.58" fill="#2b9b57"/>
<rect x="625.88" y="607.17" width="22.16" height="322.83" fill="#2c6db2"/>
<rect x="652.07" y="809.46" width="22.16" height="120.54" fill="#f0a202"/>
<rect x="678.26" y="887.01" width="22.16" height="42.99" fill="#d48806"/>
<rect x="704.46" y="822.84" width="22.16" height="107.16" fill="#2b9b57"/>
<rect x="755.04" y="487.50" width="22.16" height="442.50" fill="#2c6db2"/>
<rect x="781.24" y="816.99" width="22.16" height="113.01" fill="#f0a202"/>
<rect x="807.43" y="914.04" width="22.16" height="15.96" fill="#d48806"/>
<rect x="833.63" y="894.37" width="22.16" height="35.63" fill="#2b9b57"/>
<rect x="884.21" y="555.02" width="22.16" height="374.98" fill="#2c6db2"/>
<rect x="910.40" y="802.76" width="22.16" height="127.24" fill="#f0a202"/>
<rect x="936.60" y="909.50" width="22.16" height="20.50" fill="#d48806"/>
<rect x="962.79" y="884.25" width="22.16" height="45.75" fill="#2b9b57"/>
<rect x="1013.38" y="483.99" width="22.16" height="446.01" fill="#2c6db2"/>
<rect x="1039.57" y="814.59" width="22.16" height="115.41" fill="#f0a202"/>
<rect x="1065.77" y="913.62" width="22.16" height="16.38" fill="#d48806"/>
<rect x="1091.96" y="893.43" width="22.16" height="36.57" fill="#2b9b57"/>
<rect x="1142.54" y="458.26" width="22.16" height="471.74" fill="#2c6db2"/>
<rect x="1168.74" y="832.06" width="22.16" height="97.94" fill="#f0a202"/>
<rect x="1194.93" y="908.99" width="22.16" height="21.01" fill="#d48806"/>
<rect x="1221.13" y="883.11" width="22.16" height="46.89" fill="#2b9b57"/>
<rect x="1271.71" y="369.93" width="22.16" height="560.07" fill="#2c6db2"/>
<rect x="1297.90" y="876.88" width="22.16" height="53.12" fill="#f0a202"/>
<rect x="1324.10" y="911.57" width="22.16" height="18.43" fill="#d48806"/>
<rect x="1350.29" y="891.89" width="22.16" height="38.11" fill="#2b9b57"/>
<rect x="1400.87" y="446.43" width="22.16" height="483.57" fill="#2c6db2"/>
<rect x="1427.07" y="902.78" width="22.16" height="27.22" fill="#f0a202"/>
<rect x="1453.26" y="903.49" width="22.16" height="26.51" fill="#d48806"/>
<rect x="1479.46" y="881.49" width="22.16" height="48.51" fill="#2b9b57"/>
<rect x="1530.04" y="296.07" width="22.16" height="633.93" fill="#2c6db2"/>
<rect x="1556.24" y="903.77" width="22.16" height="26.23" fill="#f0a202"/>
<rect x="1582.43" y="913.50" width="22.16" height="16.50" fill="#d48806"/>
<rect x="1608.63" y="879.48" width="22.16" height="50.52" fill="#2b9b57"/>
<polyline fill="none" stroke="#c83349" stroke-width="2.2" points="159.58,535.97 288.75,360.35 417.92,243.37 547.08,417.35 676.25,220.00 805.42,220.00 934.58,220.00 1063.75,220.00 1192.92,220.00 1322.08,273.27 1451.25,461.26 1580.42,220.00"/>
<circle cx="159.58" cy="535.97" r="2.8" fill="#c83349"/>
<circle cx="288.75" cy="360.35" r="2.8" fill="#c83349"/>
<circle cx="417.92" cy="243.37" r="2.8" fill="#c83349"/>
<circle cx="547.08" cy="417.35" r="2.8" fill="#c83349"/>
<circle cx="676.25" cy="220.00" r="2.8" fill="#c83349"/>
<circle cx="805.42" cy="220.00" r="2.8" fill="#c83349"/>
<circle cx="934.58" cy="220.00" r="2.8" fill="#c83349"/>
<circle cx="1063.75" cy="220.00" r="2.8" fill="#c83349"/>
<circle cx="1192.92" cy="220.00" r="2.8" fill="#c83349"/>
<circle cx="1322.08" cy="273.27" r="2.8" fill="#c83349"/>
<circle cx="1451.25" cy="461.26" r="2.8" fill="#c83349"/>
<circle cx="1580.42" cy="220.00" r="2.8" fill="#c83349"/>
<text class="label" x="870.00" y="1026" text-anchor="middle">Month</text>
<text class="label" x="28" y="575.00" transform="rotate(-90 28 575.00)" text-anchor="middle">Monthly energy total (GWh)</text>
<text class="label" x="1738" y="575.00" transform="rotate(90 1738 575.00)" text-anchor="middle">H2 storage fullness (%), end-of-month</text>
<rect x="1170" y="50" width="550" height="154" fill="white" fill-opacity="0.92" stroke="#cfcfcf"/>
<rect x="1184" y="64" width="28" height="12" fill="#2c6db2"/>
<text class="legend" x="1222" y="74">Wind generation (GWh/month)</text>
<rect x="1184" y="86" width="28" height="12" fill="#f0a202"/>
<text class="legend" x="1222" y="96">Solar generation (GWh/month)</text>
<rect x="1184" y="108" width="28" height="12" fill="#d48806"/>
<text class="legend" x="1222" y="118">H2 turbine output (GWh/month)</text>
<rect x="1184" y="130" width="28" height="12" fill="#2b9b57"/>
<text class="legend" x="1222" y="140">Electrolyzer electricity use (GWh/month)</text>
<line x1="1184" y1="158" x2="1212" y2="158" stroke="#c83349" stroke-width="2.2"/>
<circle cx="1198" cy="158" r="2.8" fill="#c83349"/>
<text class="legend" x="1222" y="162">Storage fullness (%), end-of-month</text>
</svg>